<?xml version="1.0" standalone="no"?>
<!DOCTYPE svg PUBLIC "-//W3C//DTD SVG 20010904//EN"
 "http://www.w3.org/TR/2001/REC-SVG-20010904/DTD/svg10.dtd">
<svg version="1.0" xmlns="http://www.w3.org/2000/svg"
 width="1280.000000pt" height="901.000000pt" viewBox="0 0 1280.000000 901.000000"
 preserveAspectRatio="xMidYMid meet">
<metadata>
Created by potrace 1.15, written by Peter Selinger 2001-2017
</metadata>
<g transform="translate(0.000000,901.000000) scale(0.100000,-0.100000)"
fill="#000000" stroke="none">
<path d="M7949 8993 c-26 -29 -47 -75 -51 -113 -3 -30 2 -37 47 -72 28 -21 66
-46 85 -56 33 -16 238 -131 384 -215 l68 -39 -6 -40 c-9 -55 -30 -92 -59 -105
-14 -7 -56 -37 -92 -69 -37 -31 -101 -79 -141 -105 -40 -27 -80 -61 -88 -76
-29 -57 -156 -153 -228 -175 -49 -14 -104 -67 -129 -123 -20 -45 -48 -74 -94
-99 -41 -21 -63 -42 -110 -101 -21 -27 -52 -65 -69 -82 -32 -35 -46 -97 -49
-218 l-2 -60 -149 -195 c-82 -107 -175 -226 -205 -265 l-56 -70 -7 45 c-3 25
-7 79 -7 122 -1 85 -24 173 -64 241 -37 63 -137 151 -210 186 -61 29 -204 61
-271 61 -53 0 -163 -28 -226 -56 -67 -30 -173 -132 -208 -201 -28 -53 -59
-171 -67 -248 -10 -103 -11 -105 -48 -103 -31 3 -32 1 -35 -36 -4 -46 10 -132
43 -271 13 -55 28 -131 34 -170 7 -38 23 -112 38 -163 l26 -94 -155 -151
c-198 -195 -296 -318 -442 -554 -32 -52 -96 -133 -149 -190 -128 -135 -189
-210 -238 -295 -27 -46 -84 -116 -154 -188 -86 -89 -126 -141 -179 -230 -101
-169 -158 -242 -245 -314 -63 -51 -83 -63 -104 -59 -20 4 -39 -5 -83 -42 -32
-25 -76 -56 -98 -67 -64 -33 -151 -94 -178 -126 -14 -16 -30 -52 -37 -78 -38
-146 -54 -201 -62 -216 -18 -35 -8 -31 30 12 25 28 41 39 45 31 4 -7 2 -18 -4
-26 -8 -9 -10 -28 -6 -50 7 -37 -10 -82 -45 -120 -32 -36 -209 -365 -209 -389
0 -7 -9 -21 -21 -32 -35 -31 -65 -102 -94 -222 l-28 -113 -91 -46 c-113 -58
-189 -131 -235 -225 l-34 -68 38 -76 38 -77 -24 -18 c-13 -10 -44 -23 -68 -30
-42 -12 -48 -11 -93 14 -42 24 -59 27 -139 27 -77 0 -100 -4 -157 -29 -38 -15
-128 -45 -202 -66 -165 -45 -249 -73 -275 -92 -18 -13 -16 -14 20 -8 22 4 64
15 93 26 29 10 67 19 85 18 18 0 25 -3 17 -6 -73 -26 -355 -141 -390 -159 -25
-13 -50 -24 -56 -24 -15 0 -39 -29 -30 -37 3 -4 42 8 84 25 73 30 112 39 112
27 0 -3 -18 -32 -41 -65 -47 -70 -123 -128 -182 -142 -66 -15 -104 -43 -111
-83 -6 -30 -21 -44 -104 -104 -53 -38 -146 -99 -206 -135 -91 -55 -116 -66
-153 -66 -43 0 -48 -4 -122 -80 -69 -70 -91 -86 -187 -132 -140 -66 -191 -101
-208 -143 -8 -18 -25 -39 -38 -45 -12 -7 -46 -30 -74 -51 -122 -93 -467 -244
-672 -294 -57 -14 -82 -25 -108 -52 -19 -18 -34 -40 -34 -48 0 -7 29 -44 65
-82 35 -37 70 -76 77 -86 7 -10 30 -24 51 -31 28 -9 43 -23 60 -57 28 -56 71
-80 152 -86 94 -8 128 2 195 57 101 85 169 128 236 150 42 14 83 38 117 67 77
66 175 121 230 129 39 5 60 17 110 61 76 66 165 116 236 133 35 8 84 33 141
72 l87 58 79 -2 c85 -2 134 14 154 51 5 11 46 33 92 51 67 27 99 33 168 35
101 2 152 17 170 50 16 29 45 40 150 56 64 10 87 10 119 -1 35 -11 46 -11 85
4 30 12 48 26 55 45 9 21 32 36 97 65 46 21 106 43 132 47 37 7 54 17 82 50
110 128 196 189 265 189 19 0 39 8 50 20 19 21 113 60 145 60 11 0 34 -13 52
-29 18 -15 43 -31 55 -35 68 -22 322 98 485 227 30 24 57 33 140 47 57 10 200
34 318 55 234 39 631 130 738 169 58 20 306 114 439 164 35 14 49 14 87 4 37
-9 53 -9 98 5 46 13 70 14 178 4 69 -6 152 -19 185 -28 42 -12 95 -17 180 -17
186 1 234 16 640 207 145 67 435 177 471 177 23 0 16 -32 -21 -90 -39 -60 -44
-100 -20 -157 9 -21 18 -63 20 -95 3 -32 18 -92 33 -132 23 -58 27 -78 18 -92
-9 -16 -24 -179 -27 -300 0 -17 11 -58 25 -92 25 -58 25 -65 16 -154 -12 -116
-25 -187 -56 -307 -34 -132 -41 -246 -17 -290 26 -49 64 -59 292 -76 312 -24
359 -34 533 -121 58 -29 84 -35 185 -45 65 -6 142 -13 172 -16 68 -6 117 8
159 46 44 41 43 79 -2 129 -46 50 -107 83 -259 137 -69 24 -154 58 -189 76
-123 61 -321 184 -328 204 -4 11 -13 43 -20 72 -10 44 -9 56 6 84 15 30 34
140 50 299 3 30 16 76 30 101 13 25 31 77 39 115 23 100 23 100 62 146 47 56
83 134 83 180 0 20 5 40 10 43 6 3 10 15 10 25 0 11 16 50 35 87 29 55 37 85
44 159 5 51 15 111 22 135 24 84 24 84 171 -58 208 -202 443 -350 593 -374
139 -22 145 -22 145 -5 0 10 -15 19 -42 26 -158 40 -376 139 -530 240 -107 70
-258 253 -258 312 0 21 12 63 26 86 1 1 59 -56 130 -127 76 -75 159 -148 201
-175 75 -49 231 -119 368 -167 44 -15 112 -39 151 -52 118 -42 254 -48 254
-12 0 8 8 19 18 24 9 6 13 11 7 11 -323 12 -632 124 -860 310 -99 81 -175 187
-175 244 0 40 -10 55 -57 87 -36 25 -44 36 -41 57 3 23 14 31 83 59 51 21 92
45 113 68 30 33 32 39 32 107 -1 40 -11 127 -25 192 -19 98 -30 128 -59 171
-41 59 -119 126 -189 161 -68 35 -234 72 -358 79 -125 8 -176 -3 -303 -67
l-81 -41 -145 7 c-80 3 -181 9 -225 12 -79 6 -83 5 -180 -36 -55 -23 -130 -60
-167 -82 -90 -53 -103 -48 -94 35 8 72 24 137 72 297 50 163 108 402 139 562
14 76 37 161 50 190 13 29 31 89 40 133 16 75 16 94 -1 330 -25 353 -27 431
-15 592 10 125 17 159 55 275 24 73 50 160 57 193 10 43 28 81 66 135 129 186
234 381 276 515 8 28 18 90 21 139 8 112 20 140 63 143 18 0 45 8 60 17 15 8
45 22 65 30 27 11 39 22 43 43 14 60 29 83 69 107 54 32 99 80 128 137 51 101
58 116 73 172 13 47 26 68 70 110 29 29 60 68 68 87 8 20 30 49 48 64 19 16
52 54 74 86 65 93 120 150 145 150 13 0 39 -5 60 -11 46 -14 72 -2 158 75 35
31 65 56 68 56 9 0 149 -81 162 -94 11 -11 11 -25 1 -76 -12 -61 -11 -64 10
-81 27 -22 47 -15 103 39 25 24 43 33 56 30 36 -10 455 -265 686 -417 248
-165 486 -331 916 -639 407 -292 541 -398 1125 -892 645 -545 699 -589 711
-578 9 10 -57 173 -93 228 -118 181 -969 910 -1558 1336 -686 496 -1089 769
-1480 1001 -250 148 -231 132 -217 173 7 18 12 55 12 82 0 75 -24 76 -114 5
l-35 -29 -48 25 c-62 31 -130 73 -138 86 -3 6 1 24 10 40 23 46 19 67 -24 102
-30 23 -41 41 -46 70 -8 46 -35 69 -81 69 -26 0 -36 7 -53 35 -18 30 -25 35
-59 35 -24 0 -49 8 -65 20 -40 32 -68 25 -128 -30 -64 -60 -80 -60 -174 -2
-33 21 -71 44 -85 52 -14 7 -52 29 -85 48 -174 101 -313 174 -340 179 -22 3
-35 0 -46 -14z m-379 -1460 c0 -10 -52 -63 -62 -63 -18 0 -7 30 18 49 27 21
44 27 44 14z m-2081 -3494 c100 -177 102 -227 19 -337 -28 -37 -65 -94 -81
-126 -16 -33 -56 -93 -88 -134 -48 -61 -64 -91 -85 -161 -37 -124 -40 -131
-79 -147 -48 -20 -151 -40 -267 -53 -109 -12 -201 -43 -280 -94 -29 -18 -138
-75 -241 -126 -156 -77 -198 -94 -248 -98 -58 -6 -78 2 -79 28 0 14 93 109
106 109 51 0 145 77 317 260 13 14 44 35 68 47 24 12 60 39 80 60 39 41 99
126 99 141 0 4 27 49 60 100 44 67 60 100 60 126 0 49 35 86 154 164 118 78
244 195 329 306 58 76 60 77 78 60 10 -11 45 -67 78 -125z m-1429 -361 c-13
-56 -57 -148 -72 -148 -4 0 -8 -8 -8 -17 0 -11 -3 -14 -10 -7 -6 6 -6 20 0 39
5 17 17 55 26 86 15 52 59 117 71 105 3 -3 0 -29 -7 -58z m230 -657 c0 -12
-20 -25 -27 -18 -7 7 6 27 18 27 5 0 9 -4 9 -9z m4144 -970 c4 -5 1 -22 -4
-37 -14 -35 -36 -18 -26 20 6 26 20 34 30 17z m-5574 -21 c0 -14 -35 -30 -67
-30 l-28 0 30 19 c33 21 65 27 65 11z m4870 -492 c0 -24 -17 -23 -25 2 -8 26
4 48 16 29 5 -8 9 -22 9 -31z"/>
</g>
</svg>
