<svg viewBox="0 0 500 500" xmlns="http://www.w3.org/2000/svg" xmlns:xlink="http://www.w3.org/1999/xlink" width="100%" id="blobSvg">
  <defs>
    <pattern id="pattern" x="0" y="0" width="28" height="49" patternUnits="userSpaceOnUse" fill="#d1d8e0">
      <path d="M13.99 9.25l13 7.5v15l-13 7.5L1 31.75v-15l12.99-7.5zM3 17.9v12.7l10.99 6.34 11-6.35V17.9l-11-6.34L3 17.9zM0 15l12.98-7.5V0h-2v6.35L0 12.69v2.3zm0 18.5L12.98 41v8h-2v-6.85L0 35.81v-2.3zM15 0v7.5L27.99 15H28v-2.31h-.01L17 6.35V0h-2zm0 49v-8l12.99-7.5H28v2.31h-.01L17 42.15V49h-2z"></path>
    </pattern>
  </defs>
  <path id="blob" d="M436.5,303.5Q397,357,353,395Q309,433,255.5,414.5Q202,396,159,371.5Q116,347,61,298.5Q6,250,56.5,198Q107,146,145.5,97Q184,48,255,32Q326,16,370.5,73Q415,130,445.5,190Q476,250,436.5,303.5Z" fill="url(#pattern)" stroke-width="7px" stroke="#d1d8e0"></path>
</svg>